<svg width="25" height="24" viewBox="0 0 25 24" fill="none" xmlns="http://www.w3.org/2000/svg">
<path fill-rule="evenodd" clip-rule="evenodd" d="M1.5 6C1.5 4.34315 2.84315 3 4.5 3H20.5C22.1569 3 23.5 4.34315 23.5 6V18C23.5 19.6569 22.1569 21 20.5 21H4.5C2.84315 21 1.5 19.6569 1.5 18V6ZM4.5 5C3.94772 5 3.5 5.44772 3.5 6V18C3.5 18.5523 3.94772 19 4.5 19H20.5C21.0523 19 21.5 18.5523 21.5 18V6C21.5 5.44772 21.0523 5 20.5 5H4.5Z" fill="#0066B3"/>
<path fill-rule="evenodd" clip-rule="evenodd" d="M1.5 8C1.5 7.44772 1.94772 7 2.5 7H22.5C23.0523 7 23.5 7.44772 23.5 8C23.5 8.55228 23.0523 9 22.5 9H2.5C1.94772 9 1.5 8.55228 1.5 8Z" fill="#0066B3"/>
<path fill-rule="evenodd" clip-rule="evenodd" d="M6.5 2C7.05228 2 7.5 2.44772 7.5 3V5C7.5 5.55228 7.05228 6 6.5 6C5.94772 6 5.5 5.55228 5.5 5V3C5.5 2.44772 5.94772 2 6.5 2ZM18.5 2C19.0523 2 19.5 2.44772 19.5 3V5C19.5 5.55228 19.0523 6 18.5 6C17.9477 6 17.5 5.55228 17.5 5V3C17.5 2.44772 17.9477 2 18.5 2Z" fill="#0066B3"/>
<rect x="5.5" y="10" width="2" height="2" rx="1" fill="#0066B3"/>
<rect x="5.5" y="13" width="2" height="2" rx="1" fill="#0066B3"/>
<rect x="5.5" y="16" width="2" height="2" rx="1" fill="#0066B3"/>
<rect x="9.5" y="10" width="2" height="2" rx="1" fill="#0066B3"/>
<rect x="9.5" y="13" width="2" height="2" rx="1" fill="#0066B3"/>
<rect x="9.5" y="16" width="2" height="2" rx="1" fill="#0066B3"/>
<rect x="13.5" y="10" width="2" height="2" rx="1" fill="#0066B3"/>
<rect x="13.5" y="13" width="2" height="2" rx="1" fill="#0066B3"/>
<rect x="13.5" y="16" width="2" height="2" rx="1" fill="#0066B3"/>
<rect x="17.5" y="10" width="2" height="2" rx="1" fill="#0066B3"/>
<rect x="17.5" y="13" width="2" height="2" rx="1" fill="#0066B3"/>
<rect x="17.5" y="16" width="2" height="2" rx="1" fill="#0066B3"/>
</svg>