<svg width="19" height="19" viewBox="0 0 19 19" fill="none" xmlns="http://www.w3.org/2000/svg">
<path fill-rule="evenodd" clip-rule="evenodd" d="M0.5 1.76905C0.5 0.792032 1.25509 0 2.18655 0H5.2924C6.64352 0 7.81335 0.984311 8.10645 2.36777L8.55295 4.47529C8.73779 5.3478 8.54993 6.26146 8.03867 6.97649L7.4998 7.73013L7.7221 8.13818C8.51544 9.59445 9.68838 10.7815 11.1016 11.561L11.7492 11.0515C12.5155 10.4487 13.5149 10.2785 14.4236 10.5962L16.5288 11.3323C17.706 11.7439 18.5 12.8994 18.5 14.201V17.2285C18.5 18.114 17.8563 18.8533 17.0157 18.9335C8.14676 19.7792 0.5 12.4544 0.5 3.11335V1.76905ZM2.44595 2.04113V3.11335C2.44595 11.1538 8.94683 17.4801 16.5541 16.9247V14.201C16.5541 13.778 16.296 13.4024 15.9134 13.2687L13.8082 12.5326C13.5053 12.4267 13.1722 12.4834 12.9168 12.6844L12.1294 13.3038C11.6244 13.701 10.9488 13.765 10.3842 13.4688C8.55909 12.5117 7.04493 11.0092 6.03254 9.15087L5.76255 8.65528C5.40643 8.00158 5.4547 7.18843 5.88537 6.58612L6.48191 5.75181C6.65234 5.51347 6.71495 5.20891 6.65334 4.91808L6.20684 2.81055C6.1116 2.36099 5.73145 2.04113 5.2924 2.04113H2.44595Z" fill="#000"/>
</svg>