<svg width="24" height="16" viewBox="0 0 24 16" fill="none" xmlns="http://www.w3.org/2000/svg">
<path fill-rule="evenodd" clip-rule="evenodd" d="M23.4352 1.79927C23.6132 1.23557 23.4352 0.82561 22.6473 0.82561H20.0292C19.4812 0.82561 19.1779 1.07227 18.9889 1.37566C18.9116 1.49962 18.8585 1.63472 18.8001 1.76862C18.4763 2.51135 17.2608 5.16216 15.6574 6.97508C15.0474 7.59002 14.7678 7.79501 14.4373 7.79501C14.2594 7.79501 14.0306 7.59003 14.0306 7.02632V1.77365C14.0306 1.10746 13.8273 0.799988 13.2681 0.799988H9.15042C8.74373 0.799988 8.48956 1.10746 8.48956 1.41493C8.48956 2.0555 9.43001 2.20924 9.53168 4.00284V7.8975C9.53168 8.74305 9.37918 8.89678 9.04875 8.89678C8.15912 8.89678 5.99861 5.59145 4.7023 1.8249C4.44812 1.08184 4.19394 0.799988 3.53308 0.799988H0.889624C0.127089 0.799988 0 1.15871 0 1.54305C0 2.23486 0.889625 5.71956 4.14311 10.3317C6.30362 13.4833 9.37918 15.1744 12.1497 15.1744C13.8273 15.1744 14.0306 14.79 14.0306 14.1495V11.7665C14.0306 10.9979 14.1831 10.8697 14.7169 10.8697C15.0982 10.8697 15.7845 11.0747 17.335 12.5865C19.1142 14.3801 19.4192 15.2 20.4105 15.2H23.0286C23.7911 15.2 24.1469 14.8156 23.9436 14.0726C23.7148 13.3295 22.8506 12.2534 21.7322 10.9722C21.1222 10.2548 20.2072 9.46049 19.9276 9.07615V9.07615C19.5873 8.61883 20.3322 7.29264 20.647 6.81742C21.6052 5.37056 23.2068 2.86223 23.4352 1.79927Z" fill="#0066B3"/>
</svg>