<svg width="21" height="22" viewBox="0 0 21 22" fill="none" xmlns="http://www.w3.org/2000/svg">
<path fill-rule="evenodd" clip-rule="evenodd" d="M2.0024 9.49867C7.47847 6.45041 11.13 4.44081 12.9571 3.46988C18.1738 0.697649 19.2578 0.216083 19.9643 0.200182C20.1197 0.196684 20.4671 0.245888 20.6922 0.479214C20.8822 0.67623 20.9345 0.942371 20.9595 1.12916C20.9845 1.31596 21.0157 1.74148 20.9909 2.07396C20.7082 5.86893 19.485 15.0783 18.8627 19.3287C18.5994 21.1273 18.0809 21.7303 17.579 21.7893C16.4881 21.9176 15.6598 20.8682 14.6032 19.9834C12.95 18.5987 12.016 17.7368 10.4112 16.3856C8.55655 14.8241 9.75882 13.9659 10.8158 12.5633C11.0924 12.1962 15.8987 6.61072 15.9917 6.10403C16.0034 6.04066 16.0142 5.80444 15.9043 5.67971C15.7945 5.55498 15.6324 5.59764 15.5154 5.63156C15.3496 5.67964 12.7084 7.91003 7.59197 12.3227C6.84229 12.9804 6.16325 13.3009 5.55486 13.2841C4.88415 13.2656 3.59399 12.7996 2.63488 12.4012C1.4585 11.9127 0.523534 11.6544 0.604948 10.8246C0.647354 10.3925 1.11317 9.95047 2.0024 9.49867Z" fill="#0066B3"/>
</svg>